<svg xmlns="http://www.w3.org/2000/svg" width="36" height="36" viewBox="0 0 36 36" fill="none">
  <path d="M33.9335 5.86905C33.6067 5.75497 33.3 6.02635 33.3 6.37245C33.3 6.64739 33.4996 6.87582 33.7488 6.99211C34.0131 7.11549 34.2483 7.29742 34.4353 7.52648C34.7228 7.87873 34.8783 8.32032 34.875 8.77502V23.525C34.875 24.0773 34.4273 24.525 33.875 24.525H2.125C1.57272 24.525 1.125 24.0773 1.125 23.525V8.77502C1.12405 8.32304 1.27999 7.88474 1.5662 7.53492C1.75191 7.30795 1.985 7.12735 2.24687 7.00431C2.49542 6.88753 2.69438 6.6592 2.69438 6.38459C2.69438 6.03804 2.38722 5.76634 2.06014 5.88086C1.56777 6.05325 1.12374 6.34931 0.773185 6.74523C0.277272 7.30534 0.00240321 8.02693 0 8.77502V28.125C0.00148694 28.9406 0.326135 29.7224 0.902839 30.2991C1.47954 30.8758 2.2613 31.2004 3.07688 31.2019H11.0381C11.7974 31.2019 12.2797 32.0149 11.9157 32.6813L11.5794 33.2969C11.4041 33.6179 11.0675 33.8175 10.7018 33.8175H10.53C10.3178 33.8175 10.1077 33.8595 9.91176 33.9411C9.71584 34.0226 9.53799 34.1421 9.38846 34.2927C9.23892 34.4433 9.12066 34.622 9.04047 34.8185C8.96029 35.0149 8.91978 35.2253 8.92126 35.4375C8.92126 35.5867 8.98052 35.7298 9.08601 35.8353C9.1915 35.9408 9.33457 36 9.48376 36C9.63294 36 9.77602 35.9408 9.88151 35.8353C9.987 35.7298 10.0463 35.5867 10.0463 35.4375C10.0463 35.3093 10.0972 35.1862 10.1879 35.0955C10.2787 35.0048 10.4017 34.9538 10.53 34.9538H25.4588C25.5866 34.9553 25.7088 35.0067 25.7992 35.0971C25.8896 35.1875 25.9411 35.3097 25.9425 35.4375C25.9425 35.5867 26.0018 35.7298 26.1073 35.8353C26.2128 35.9408 26.3558 36 26.505 36C26.6542 36 26.7973 35.9408 26.9028 35.8353C27.0083 35.7298 27.0675 35.5867 27.0675 35.4375C27.0675 35.0109 26.898 34.6017 26.5963 34.3C26.2946 33.9983 25.8854 33.8288 25.4588 33.8288H25.287C24.9213 33.8288 24.5847 33.6291 24.4094 33.3082L24.0731 32.6926C23.7091 32.0262 24.1914 31.2132 24.9507 31.2132H32.9175C33.7356 31.2117 34.5196 30.8857 35.0975 30.3067C35.6755 29.7277 36 28.9431 36 28.125V8.77502C35.999 8.02448 35.7241 7.3001 35.227 6.73776C34.875 6.33949 34.4286 6.04189 33.9335 5.86905ZM22.6043 32.3667C22.9679 33.0331 22.4856 33.8457 21.7264 33.8457H14.2623C13.5032 33.8457 13.0209 33.0331 13.3845 32.3667L13.7051 31.7792C13.8804 31.458 14.217 31.2582 14.5829 31.2582H21.4059C21.7718 31.2582 22.1084 31.458 22.2837 31.7792L22.6043 32.3667Z" fill="#131D32"/>
  <path d="M5.72753 20.0782H15.8228C16.2248 20.0816 16.6093 20.2412 16.8935 20.5225C17.1777 20.8039 17.339 21.1845 17.3424 21.5824C17.3424 21.7559 17.412 21.9222 17.5359 22.0449C17.6598 22.1675 17.8279 22.2364 18.0031 22.2364C18.1783 22.2364 18.3464 22.1675 18.4703 22.0449C18.5942 21.9222 18.6638 21.7559 18.6638 21.5824C18.6602 21.1811 18.8175 20.7948 19.101 20.508C19.3846 20.2211 19.7714 20.0572 20.1767 20.052H30.2787C30.6735 20.0503 31.0516 19.8938 31.3302 19.6168C31.6088 19.3398 31.7652 18.9648 31.7652 18.574V1.47807C31.7652 1.08719 31.6088 0.712226 31.3302 0.435222C31.0516 0.158217 30.6735 0.00172955 30.2787 0H20.1767C19.7609 0.000947497 19.3503 0.0929042 18.9746 0.269286C18.5988 0.445669 18.267 0.702113 18.0031 1.02026C17.7378 0.701957 17.4049 0.445491 17.028 0.269139C16.6512 0.0927876 16.2397 0.000891445 15.8228 0H5.72753C5.33152 0 4.95173 0.155725 4.67171 0.432916C4.39169 0.710108 4.23438 1.08606 4.23438 1.47807V18.6001C4.23438 18.9921 4.39169 19.3681 4.67171 19.6453C4.95173 19.9225 5.33152 20.0782 5.72753 20.0782ZM21.3065 3.92408H27.8011C27.9763 3.92408 28.1443 3.99298 28.2682 4.11563C28.3922 4.23828 28.4618 4.40463 28.4618 4.57809C28.4618 4.75154 28.3922 4.9179 28.2682 5.04055C28.1443 5.1632 27.9763 5.2321 27.8011 5.2321H21.3065C21.1313 5.2321 20.9632 5.1632 20.8393 5.04055C20.7154 4.9179 20.6458 4.75154 20.6458 4.57809C20.6458 4.40463 20.7154 4.23828 20.8393 4.11563C20.9632 3.99298 21.1313 3.92408 21.3065 3.92408ZM21.3065 7.56693H27.8011C27.9763 7.56693 28.1443 7.63583 28.2682 7.75848C28.3922 7.88113 28.4618 8.04749 28.4618 8.22094C28.4618 8.3944 28.3922 8.56075 28.2682 8.6834C28.1443 8.80605 27.9763 8.87495 27.8011 8.87495H21.3065C21.1313 8.87495 20.9632 8.80605 20.8393 8.6834C20.7154 8.56075 20.6458 8.3944 20.6458 8.22094C20.6458 8.04749 20.7154 7.88113 20.8393 7.75848C20.9632 7.63583 21.1313 7.56693 21.3065 7.56693ZM21.3065 11.2032H27.8011C27.9763 11.2032 28.1443 11.2721 28.2682 11.3948C28.3922 11.5174 28.4618 11.6838 28.4618 11.8573C28.4618 12.0307 28.3922 12.1971 28.2682 12.3197C28.1443 12.4424 27.9763 12.5113 27.8011 12.5113H21.3065C21.1313 12.5113 20.9632 12.4424 20.8393 12.3197C20.7154 12.1971 20.6458 12.0307 20.6458 11.8573C20.6458 11.6838 20.7154 11.5174 20.8393 11.3948C20.9632 11.2721 21.1313 11.2032 21.3065 11.2032ZM21.3065 14.8461H27.8011C27.9763 14.8461 28.1443 14.915 28.2682 15.0376C28.3922 15.1603 28.4618 15.3266 28.4618 15.5001C28.4618 15.6736 28.3922 15.8399 28.2682 15.9626C28.1443 16.0852 27.9763 16.1541 27.8011 16.1541H21.3065C21.1313 16.1541 20.9632 16.0852 20.8393 15.9626C20.7154 15.8399 20.6458 15.6736 20.6458 15.5001C20.6458 15.3266 20.7154 15.1603 20.8393 15.0376C20.9632 14.915 21.1313 14.8461 21.3065 14.8461ZM8.2051 3.92408H14.6997C14.8749 3.92408 15.0429 3.99298 15.1668 4.11563C15.2907 4.23828 15.3603 4.40463 15.3603 4.57809C15.3603 4.75154 15.2907 4.9179 15.1668 5.04055C15.0429 5.1632 14.8749 5.2321 14.6997 5.2321H8.2051C8.02988 5.2321 7.86183 5.1632 7.73793 5.04055C7.61402 4.9179 7.54442 4.75154 7.54442 4.57809C7.54442 4.40463 7.61402 4.23828 7.73793 4.11563C7.86183 3.99298 8.02988 3.92408 8.2051 3.92408ZM8.2051 7.56693H14.6997C14.8749 7.56693 15.0429 7.63583 15.1668 7.75848C15.2907 7.88113 15.3603 8.04749 15.3603 8.22094C15.3603 8.3944 15.2907 8.56075 15.1668 8.6834C15.0429 8.80605 14.8749 8.87495 14.6997 8.87495H8.2051C8.02988 8.87495 7.86183 8.80605 7.73793 8.6834C7.61402 8.56075 7.54442 8.3944 7.54442 8.22094C7.54442 8.04749 7.61402 7.88113 7.73793 7.75848C7.86183 7.63583 8.02988 7.56693 8.2051 7.56693ZM8.2051 11.2032H14.6997C14.8749 11.2032 15.0429 11.2721 15.1668 11.3948C15.2907 11.5174 15.3603 11.6838 15.3603 11.8573C15.3603 12.0307 15.2907 12.1971 15.1668 12.3197C15.0429 12.4424 14.8749 12.5113 14.6997 12.5113H8.2051C8.02988 12.5113 7.86183 12.4424 7.73793 12.3197C7.61402 12.1971 7.54442 12.0307 7.54442 11.8573C7.54442 11.6838 7.61402 11.5174 7.73793 11.3948C7.86183 11.2721 8.02988 11.2032 8.2051 11.2032ZM8.2051 14.8461H14.6997C14.8749 14.8461 15.0429 14.915 15.1668 15.0376C15.2907 15.1603 15.3603 15.3266 15.3603 15.5001C15.3603 15.6736 15.2907 15.8399 15.1668 15.9626C15.0429 16.0852 14.8749 16.1541 14.6997 16.1541H8.2051C8.02988 16.1541 7.86183 16.0852 7.73793 15.9626C7.61402 15.8399 7.54442 15.6736 7.54442 15.5001C7.54442 15.3266 7.61402 15.1603 7.73793 15.0376C7.86183 14.915 8.02988 14.8461 8.2051 14.8461Z" fill="#131D32"/>
</svg>