<svg xmlns="http://www.w3.org/2000/svg" width="36" height="36" viewBox="0 0 36 36" fill="none">
  <path d="M18.9789 13.5139C18.7949 13.7381 18.6509 13.993 18.5632 14.2519C18.2903 15.059 17.9129 15.7018 17.4106 16.2174C16.6593 16.9879 15.79 17.3955 14.897 17.3955H14.8953C13.997 17.395 13.1231 16.9833 12.3666 16.2058C11.8417 15.6664 11.4567 14.994 11.1884 14.1497C11.1251 13.95 11.0148 13.7514 10.8772 13.5911C9.95804 12.5181 9.57423 11.4904 9.66946 10.357L9.67527 10.2844C9.67991 10.2222 9.68688 10.1363 9.69675 10.0812C10.0062 9.97838 10.1886 9.68167 10.199 9.26361C10.206 8.96632 10.2083 8.66554 10.2112 8.37464C10.2141 8.05064 10.217 7.71967 10.2263 7.38986C10.2263 6.83709 10.6746 6.3929 11.2233 6.3929C11.2331 6.3929 11.243 6.3929 11.2529 6.39348L11.7534 6.40799C12.1657 6.37432 12.582 6.37838 12.9971 6.37316C13.3682 6.36851 13.7398 6.37199 14.1108 6.37199H15.2053C15.6036 6.37199 16.002 6.37316 16.4003 6.37141C16.6947 6.37025 16.9891 6.36561 17.2829 6.36445C17.5372 6.3627 17.7921 6.36387 18.0464 6.36328C18.2938 6.3627 18.5382 6.35864 18.7815 6.43238C19.0625 6.51774 19.2727 6.6838 19.3935 6.94277C19.4713 7.10883 19.5073 7.29522 19.5607 7.46709C19.5636 7.46361 19.5665 7.46012 19.5695 7.45664C19.577 7.73941 19.577 8.02799 19.5764 8.3247C19.5758 8.58309 19.5753 8.85019 19.5811 9.11612C19.5828 9.18696 19.5822 9.25838 19.5816 9.33502V9.48425C19.5816 9.78154 19.7947 10.0376 20.0874 10.0904C20.099 10.1456 20.1071 10.2222 20.11 10.2536C20.232 11.3934 19.872 12.4299 18.9789 13.5139ZM8.33398 10.3099C8.3572 10.5486 8.37172 10.7884 8.38798 11.0276C8.46694 12.211 8.96804 13.3287 9.90636 14.4238C9.93307 14.4546 9.95804 14.4993 9.96965 14.5364C10.2995 15.5746 10.7831 16.4125 11.4503 17.0982C12.4531 18.1289 13.644 18.6735 14.8947 18.6741H14.897C16.1425 18.6741 17.3287 18.1335 18.3263 17.1099C18.9656 16.4549 19.4388 15.6536 19.775 14.6613C19.8122 14.551 19.8824 14.429 19.9666 14.3262C20.938 13.147 21.4142 11.9462 21.4124 10.6705C21.4124 10.5822 21.4124 10.4934 21.4136 10.4052L21.4322 5.98935C21.4101 5.84303 21.3886 5.69438 21.3671 5.54341C21.3904 5.60322 21.413 5.66129 21.4351 5.71703C21.4751 5.81922 21.5134 5.91619 21.5483 6.01432C21.6023 6.1647 21.6487 6.31741 21.6981 6.46954C21.7022 6.44051 21.6975 6.41438 21.6923 6.38883C21.593 5.91096 21.4757 5.4389 21.2655 4.99529C21.2493 4.96045 21.233 4.92561 21.2179 4.89077C21.2173 4.89019 21.2173 4.88961 21.2173 4.88961C21.1883 4.82458 21.1616 4.75954 21.1378 4.69335C21.0681 4.50406 20.999 4.31477 20.9293 4.1249C20.8771 3.9809 20.8248 3.8369 20.7725 3.6929C20.7627 3.66677 20.7528 3.64122 20.7435 3.61509C20.754 3.60929 20.765 3.60348 20.7749 3.59767C20.9525 3.87813 21.1308 4.15916 21.3085 4.43961C21.2812 4.34554 21.2475 4.25148 21.2098 4.16032C21.0484 3.76896 20.8405 3.40896 20.5269 3.1169C20.4607 3.05593 20.4015 2.98858 20.3522 2.91426C20.0357 2.44277 19.6554 2.04271 19.1345 1.8C19.1195 1.79245 19.1038 1.78548 19.0887 1.77851C18.8495 1.67226 18.6079 1.57181 18.3675 1.46903C18.3071 1.44348 18.2473 1.41735 18.1869 1.39122C18.3089 1.4011 18.4296 1.41445 18.5487 1.43245C19.2292 1.53406 19.872 1.76226 20.495 2.05722C20.4706 2.03226 20.4439 2.01368 20.4166 1.9951C19.6676 1.48935 18.8315 1.23619 17.9431 1.1311C17.9088 1.12703 17.8745 1.12355 17.8403 1.12006C17.5424 1.09103 17.2416 1.08116 16.9565 0.966773C16.8456 0.922064 16.7255 0.898257 16.6082 0.867483C16.4729 0.832644 16.3376 0.799548 16.2029 0.76587C16.1704 0.757741 16.1378 0.750193 16.1053 0.742064C16.1071 0.725225 16.1065 0.730451 16.1088 0.713612H17.6464C17.6347 0.683419 17.6208 0.674128 17.6063 0.672387C16.9374 0.575999 16.2673 0.504 15.5909 0.564967C15.3592 0.585871 15.1304 0.595741 14.8999 0.564387C14.7983 0.550451 14.6949 0.546387 14.5922 0.537677C14.5916 0.520258 14.5916 0.525483 14.591 0.508064C15.0927 0.41458 15.5944 0.321096 16.1251 0.221806C15.5926 0.235161 15.0909 0.27 14.5951 0.358258C14.3181 0.407032 14.0475 0.495871 13.7688 0.531871C13.3716 0.583548 12.9693 0.604451 12.5669 0.638128C13.3624 0.260709 14.213 0.096387 15.0799 0C14.9167 0.00464516 14.7542 -0.00290323 14.5916 0.00580644C13.9912 0.0365806 13.3955 0.108 12.8137 0.267097C12.3311 0.398903 11.8736 0.582967 11.4799 0.902902C11.405 0.96329 11.315 1.0051 11.232 1.05561C11.2238 1.04284 11.2151 1.03064 11.207 1.01729C11.3882 0.886644 11.5624 0.744967 11.7517 0.626516C11.9444 0.506322 12.1477 0.400645 12.3532 0.303097C12.5524 0.209613 12.7597 0.13471 12.9635 0.0516774C12.5599 0.153871 12.1703 0.296129 11.7964 0.480193C11.0537 0.844838 10.4951 1.45277 9.85294 1.95039C9.85178 1.95155 9.85062 1.95329 9.84888 1.95445C9.80707 2.0218 9.76178 2.08684 9.7252 2.15709C9.6712 2.26045 9.62998 2.37193 9.56843 2.47006C9.54056 2.51477 9.48017 2.54555 9.42849 2.56761C9.3234 2.61058 9.21075 2.63555 9.10681 2.682C8.55346 2.92993 8.22772 3.36309 8.08953 3.94606C8.22191 3.68129 8.38972 3.4438 8.63475 3.22838C8.56856 3.45658 8.5134 3.65922 8.44894 3.85896C8.42049 3.9478 8.37927 4.03142 8.32933 4.10922C8.20449 4.30374 8.10811 4.51045 8.0332 4.75606C8.13772 4.5778 8.2283 4.42335 8.31888 4.2689C8.32643 4.27296 8.33398 4.27645 8.34094 4.28051C8.33165 4.32232 8.32294 4.36471 8.31307 4.40651C8.31133 4.41464 8.30959 4.42277 8.30785 4.43032C8.0512 5.55967 7.98617 6.72445 8.09824 7.87703L8.33398 10.3099Z" fill="#131D32"/>
  <path d="M28.5158 35.9349C24.8153 35.9349 21.8047 32.9243 21.8047 29.2238C21.8047 25.5234 24.8153 22.5128 28.5158 22.5128C32.2162 22.5128 35.2269 25.5234 35.2269 29.2238C35.2269 32.9243 32.2162 35.9349 28.5158 35.9349ZM28.5158 24.2866C25.7931 24.2866 23.5786 26.5018 23.5786 29.2238C23.5786 31.9459 25.7937 34.1611 28.5158 34.1611C31.2378 34.1611 33.453 31.9459 33.453 29.2238C33.453 26.5018 31.2378 24.2866 28.5158 24.2866Z" fill="#131D32"/>
  <path d="M30.0527 31.5301C29.5086 32.5405 28.777 33.088 28.4217 33.167C28.1238 33.2332 27.8439 33.0549 27.8538 32.1276L27.8695 29.2279C27.8683 28.9515 27.8451 28.8487 27.7766 28.8638C27.6848 28.8841 27.3835 29.2035 27.2017 29.4125L26.9863 29.1478C27.5676 28.2489 28.2992 27.5934 28.6998 27.5045C29.0319 27.4308 29.1876 27.8047 29.1748 28.613L29.1237 31.461C29.115 31.7996 29.1812 31.8808 29.2497 31.8657C29.3414 31.8454 29.569 31.6265 29.8083 31.2967L30.0527 31.5301ZM29.0087 25.8131C29.1109 26.2712 28.8792 26.7433 28.3752 26.8554C28.0088 26.9367 27.7098 26.727 27.6256 26.349C27.5263 25.9025 27.7388 25.3985 28.2423 25.2865C28.6661 25.1924 28.935 25.481 29.0087 25.8131Z" fill="#131D32"/>
  <path d="M20.3534 29.2239C20.3534 26.1917 22.0192 23.5452 24.4806 22.1383C23.6834 21.7115 22.7752 21.3886 21.7469 21.1767C20.8951 21.0008 19.7489 19.7187 19.2606 18.6741L19.0005 18.8681C17.7759 19.8552 16.3638 20.3748 14.8663 20.3789C13.3688 20.3743 11.9567 19.8552 10.7321 18.8681L11.1113 19.1752C10.8929 19.0219 10.6798 18.8553 10.472 18.6741C9.98422 19.7181 8.83803 21.0002 7.98564 21.1767C4.2341 21.9501 1.98062 24.1043 1.51087 27.9888L0.778101 33.6025C0.754295 34.0601 0.809456 34.139 1.23217 34.3022C1.43249 34.38 1.63455 34.4543 1.83836 34.5217C3.69816 35.1325 5.61894 35.4548 7.55771 35.6162C9.99467 35.82 12.4398 35.9245 13.6963 36C17.6034 35.9669 20.4962 35.8531 23.292 35.489C21.4978 33.9904 20.3534 31.7386 20.3534 29.2239Z" fill="#131D32"/>
</svg>