<svg xmlns="http://www.w3.org/2000/svg" width="36" height="36" viewBox="0 0 36 36" fill="none">
  <path d="M0.0292969 17.9362C0.0292969 20.1259 1.81074 21.9073 4.00041 21.9073H7.33732C8.03978 16.4671 12.7016 12.2504 18.3299 12.2504C23.9582 12.2504 28.6199 16.4671 29.3225 21.9073H31.9987C34.1884 21.9073 35.9699 20.1259 35.9699 17.9362V9.08905H0.0293741V17.9362H0.0292969Z" fill="#131D32"/>
  <path d="M31.9987 0H4.00041C1.81074 0 0.0292969 1.78144 0.0292969 3.97111V4.47405H35.9698V3.97111C35.9698 1.78144 34.1884 0 31.9987 0Z" fill="#131D32"/>
  <path d="M27.0996 23.3346C27.0996 18.504 23.1597 14.5641 18.3291 14.5641C13.4984 14.5641 9.55859 18.504 9.55859 23.3346C9.55859 28.1653 13.4985 32.1052 18.3291 32.1052C23.1597 32.1052 27.0996 28.1653 27.0996 23.3346ZM21.4014 25.4388C21.2122 26.5639 20.4489 27.4647 19.44 27.8634V27.954C19.44 28.5751 18.9639 29.11 18.3436 29.1416C17.6819 29.1753 17.1348 28.6527 17.1269 28.0003C16.6787 27.9109 16.2191 27.7322 15.7319 27.3804C15.2162 27.0081 15.058 26.2693 15.424 25.7492C15.8001 25.2146 16.5405 25.0983 17.0615 25.4863C17.3695 25.7156 17.5553 25.7765 18.2755 25.7722C18.8474 25.7684 19.0752 25.3197 19.1196 25.0552C19.2022 24.5641 18.8183 24.4283 18.6921 24.3838C17.8305 24.0792 16.9459 23.7289 16.3128 23.2323C15.6161 22.6858 15.2954 21.752 15.4757 20.7951C15.6536 19.851 16.277 19.0843 17.1262 18.7412V18.7145C17.1262 18.0967 17.5975 17.5639 18.2143 17.5282C18.8713 17.4901 19.4168 18.001 19.438 18.6445C20.0791 18.8494 20.508 19.2125 20.6768 19.4265C21.0725 19.9281 20.9867 20.6556 20.485 21.0513C20.0143 21.4228 19.3447 21.3699 18.937 20.9475C18.8653 20.8949 18.5638 20.7117 18.0199 20.8755C17.9002 20.9116 17.8025 21.0213 17.771 21.1407C17.7312 21.2916 17.7885 21.4542 17.9222 21.5366C18.3241 21.7843 18.9441 22.0187 19.4632 22.2022C20.8646 22.6976 21.6436 23.9983 21.4014 25.4388Z" fill="#131D32"/>
  <path d="M31.9981 24.221H29.3781C28.9539 29.5553 24.737 33.8379 19.4316 34.3642C20.9977 35.3974 22.8717 36 24.8843 36C30.3582 36 34.8116 31.5466 34.8116 26.0726C34.8116 25.2515 34.7107 24.4537 34.5219 23.6902C33.7488 24.0305 32.8955 24.221 31.9981 24.221Z" fill="#131D32"/>
</svg>