<svg xmlns="http://www.w3.org/2000/svg" width="14" height="16" viewBox="0 0 14 16" fill="none">
  <path d="M0 7.97518C0 8.82812 0.69393 9.52205 1.54688 9.52205H2.84671C3.12034 7.40292 4.93625 5.76039 7.12866 5.76039C9.32107 5.76039 11.137 7.40292 11.4106 9.52205H12.4531C13.3061 9.52205 14 8.82812 14 7.97518V4.52893H3.00837e-05V7.97518H0Z" fill="#DA8506"/>
  <path d="M12.4531 0.988403H1.54688C0.69393 0.988403 0 1.68233 0 2.53528V2.73119H14V2.53528C14 1.68233 13.3061 0.988403 12.4531 0.988403Z" fill="#DA8506"/>
  <path d="M10.5437 10.078C10.5437 8.19633 9.00902 6.66162 7.12732 6.66162C5.24562 6.66162 3.71094 8.19633 3.71094 10.078C3.71094 11.9597 5.24565 13.4944 7.12732 13.4944C9.00899 13.4944 10.5437 11.9597 10.5437 10.078ZM8.32408 10.8976C8.25038 11.3359 7.95308 11.6868 7.56006 11.8421V11.8774C7.56006 12.1193 7.3746 12.3277 7.13297 12.34C6.87523 12.3531 6.66211 12.1495 6.65904 11.8954C6.48446 11.8606 6.30541 11.791 6.11563 11.654C5.91476 11.5089 5.85314 11.2212 5.9957 11.0186C6.14222 10.8103 6.4306 10.765 6.63357 10.9161C6.75353 11.0055 6.82593 11.0292 7.10644 11.0275C7.32921 11.026 7.41796 10.8512 7.43526 10.7482C7.46744 10.5569 7.31788 10.504 7.26873 10.4867C6.93312 10.368 6.58853 10.2316 6.34191 10.0381C6.07053 9.82528 5.94562 9.46152 6.01583 9.08878C6.08513 8.72103 6.32797 8.42237 6.65877 8.28871V8.27832C6.65877 8.03767 6.84236 7.83011 7.08262 7.8162C7.33855 7.80139 7.55101 8.00039 7.55928 8.25104C7.80902 8.33086 7.97609 8.4723 8.04182 8.55567C8.19597 8.75107 8.16254 9.03444 7.96714 9.18859C7.78376 9.3333 7.52292 9.31269 7.36412 9.14815C7.33621 9.12766 7.21874 9.05631 7.00688 9.12009C6.96025 9.13415 6.92219 9.1769 6.90993 9.2234C6.89443 9.2822 6.91675 9.34553 6.96881 9.37761C7.12537 9.47411 7.36691 9.56541 7.5691 9.63688C8.11501 9.82988 8.41844 10.3365 8.32408 10.8976Z" fill="#DA8506"/>
  <path d="M12.4536 10.4233H11.433C11.2678 12.5012 9.62521 14.1694 7.55859 14.3744C8.16861 14.7769 8.89863 15.0116 9.68256 15.0116C11.8149 15.0116 13.5496 13.2769 13.5496 11.1446C13.5496 10.8247 13.5103 10.514 13.4367 10.2166C13.1356 10.3491 12.8032 10.4233 12.4536 10.4233Z" fill="#DA8506"/>
</svg>