<svg xmlns="http://www.w3.org/2000/svg" width="22" height="22" viewBox="0 0 22 22" fill="none">
  <path d="M10.9984 11C12.5724 11 13.8484 9.72406 13.8484 8.15005C13.8484 6.57604 12.5724 5.30005 10.9984 5.30005C9.42443 5.30005 8.14844 6.57604 8.14844 8.15005C8.14844 9.72406 9.42443 11 10.9984 11Z" stroke="black" stroke-width="1.5"/>
  <path d="M16.6695 18.6C16.5184 15.8531 15.6774 13.85 10.9988 13.85C6.32035 13.85 5.47932 15.8531 5.32812 18.6" stroke="black" stroke-width="1.5" stroke-linecap="round"/>
  <path d="M6.25 2.77093C7.64733 1.96262 9.26967 1.5 11 1.5C16.2467 1.5 20.5 5.75329 20.5 11C20.5 16.2467 16.2467 20.5 11 20.5C5.75329 20.5 1.5 16.2467 1.5 11C1.5 9.26967 1.96262 7.64733 2.77093 6.25" stroke="black" stroke-width="1.5" stroke-linecap="round"/>
</svg>