<svg xmlns="http://www.w3.org/2000/svg" width="13" height="14" viewBox="0 0 13 14" fill="none">
  <path fill-rule="evenodd" clip-rule="evenodd" d="M9.28067 5.15976C9.49311 5.37277 9.49311 5.71811 9.28067 5.93112L6.37933 8.84024C6.16688 9.05325 5.82241 9.05325 5.60997 8.84024L4.15933 7.38568C3.94689 7.17267 3.94689 6.82734 4.15933 6.61433C4.37177 6.40132 4.71621 6.40132 4.92866 6.61433L5.99468 7.68314L8.51131 5.15976C8.72375 4.94675 9.06816 4.94675 9.28067 5.15976Z" fill="white"/>
  <path fill-rule="evenodd" clip-rule="evenodd" d="M6.5 1.5C3.46243 1.5 0.999999 3.96243 0.999999 7C0.999999 10.0376 3.46243 12.5 6.5 12.5C9.53758 12.5 12 10.0376 12 7C12 3.96243 9.53758 1.5 6.5 1.5ZM0 7C0 3.41015 2.91015 0.5 6.5 0.5C10.0898 0.5 13 3.41015 13 7C13 10.5898 10.0898 13.5 6.5 13.5C2.91015 13.5 0 10.5898 0 7Z" fill="white"/>
</svg> 