<svg xmlns="http://www.w3.org/2000/svg" width="28" height="28" viewBox="0 0 28 28" fill="none">
  <path d="M14 0C6.26719 0 0 6.26719 0 14C0 21.7328 6.26719 28 14 28C21.7328 28 28 21.7328 28 14C28 6.26719 21.7328 0 14 0ZM17.0898 11.6266L16.9312 13.7211H14.782V20.9945H12.0695V13.7211H10.6203V11.6266H12.0695V10.2211C12.0695 9.60312 12.0859 8.64609 12.5344 8.05C13.0102 7.42109 13.6609 6.99453 14.782 6.99453C16.6086 6.99453 17.3742 7.25703 17.3742 7.25703L17.0133 9.40078C17.0133 9.40078 16.4117 9.22578 15.8484 9.22578C15.2852 9.22578 14.782 9.42813 14.782 9.99141V11.6266H17.0898Z" fill="white"/>
</svg>