<svg xmlns="http://www.w3.org/2000/svg" width="20" height="22" viewBox="0 0 20 22" fill="none">
  <path d="M15.9153 8.93033C15.552 8.84225 15.1667 8.79822 14.7704 8.79822C11.886 8.79822 9.54102 11.1432 9.54102 14.0276C9.54102 15.0074 9.81624 15.9322 10.3006 16.7248C10.708 17.4074 11.2695 17.9909 11.952 18.4092C12.7667 18.9487 13.7355 19.2569 14.7704 19.2569C16.686 19.2569 18.3484 18.2331 19.2511 16.7248C19.7355 15.9322 19.9997 15.0074 19.9997 14.0276C19.9997 11.5395 18.2603 9.44776 15.9153 8.93033ZM17.3795 13.345L14.5832 15.9212C14.4291 16.0643 14.2199 16.1413 14.0217 16.1413C13.8126 16.1413 13.6034 16.0643 13.4383 15.8991L12.1502 14.6111C11.8309 14.2918 11.8309 13.7634 12.1502 13.4441C12.4695 13.1248 12.9979 13.1248 13.3172 13.4441L14.0438 14.1707L16.2566 12.134C16.5979 11.8257 17.1153 11.8478 17.4236 12.178C17.7318 12.5193 17.7098 13.0368 17.3795 13.345Z" fill="#292D32"/>
  <path d="M18.8991 2.2146V4.65853C18.8991 5.55024 18.3484 6.66211 17.7977 7.22356L17.5995 7.3997C17.4453 7.54281 17.214 7.57584 17.0158 7.50978C16.7955 7.43272 16.5752 7.37768 16.355 7.32264C15.8704 7.20154 15.3527 7.1465 14.8241 7.1465C11.0245 7.1465 7.94069 10.2289 7.94069 14.0269C7.94069 15.2819 8.2821 16.5149 8.9319 17.5717C9.48257 18.4965 10.2535 19.2671 11.0905 19.7845C11.3438 19.9496 11.443 20.3019 11.2227 20.5C11.1456 20.5661 11.0685 20.6211 10.9914 20.6762L9.44953 21.678C8.01778 22.5697 6.04639 21.5679 6.04639 19.7845V13.8948C6.04639 13.1132 5.60585 12.1114 5.16531 11.561L0.991212 7.11347C0.440539 6.55203 0 5.55024 0 4.88971V2.32469C0 0.992636 0.991212 -0.00915527 2.19168 -0.00915527H16.7074C17.9079 -0.00915527 18.8991 0.992636 18.8991 2.2146Z" fill="#292D32"/>
</svg>