<svg xmlns="http://www.w3.org/2000/svg" width="27" height="34" viewBox="0 0 27 34" fill="none">
  <path fill-rule="evenodd" clip-rule="evenodd" d="M1.50332 26.2651C2.06916 25.9353 2.79535 26.1264 3.12532 26.6923C4.43289 28.9346 6.43189 30.6302 8.89704 31.7305C9.49519 31.9974 9.76367 32.6988 9.49671 33.297C9.22974 33.8951 8.52844 34.1636 7.93029 33.8966C5.06563 32.6181 2.66225 30.6069 1.07622 27.8871C0.746252 27.3213 0.937471 26.5952 1.50332 26.2651Z" fill="white"/>
  <path fill-rule="evenodd" clip-rule="evenodd" d="M24.4202 4.22532C22.8168 2.58785 20.5302 1.98386 18.2916 2.6208C17.6616 2.80007 17.0056 2.43466 16.8263 1.80464C16.6471 1.17463 17.0124 0.518565 17.6425 0.339301C20.7075 -0.532803 23.8963 0.299814 26.1149 2.56577C26.5732 3.03379 26.5653 3.7847 26.0974 4.24297C25.6293 4.70125 24.8785 4.69334 24.4202 4.22532Z" fill="white"/>
  <path fill-rule="evenodd" clip-rule="evenodd" d="M12.2191 3.25481C11.8807 2.67432 10.8942 2.32229 9.89209 2.89499C8.89368 3.46559 8.71808 4.4714 9.05069 5.04177L13.0447 11.8909C13.3746 12.4567 13.1834 13.1829 12.6176 13.5129C12.0518 13.8429 11.3256 13.6516 10.9956 13.0858L5.67027 3.95366C5.33176 3.37317 4.34529 3.02115 3.34323 3.59384C2.34481 4.16444 2.16922 5.17026 2.50184 5.74062L8.49282 16.0142C8.82279 16.58 8.63157 17.3064 8.06572 17.6362C7.49988 17.9663 6.77368 17.7751 6.44372 17.2091L3.78106 12.6431C3.44255 12.0626 2.45608 11.7106 1.45402 12.2833C0.455604 12.8539 0.280009 13.8596 0.612634 14.43L6.60361 24.7037C9.14793 29.0668 15.4266 30.4828 20.7509 27.4398C26.0717 24.399 27.963 18.3241 25.4246 13.9711L21.4307 7.12201C21.0921 6.54152 20.1057 6.18949 19.1036 6.76218C18.1053 7.33279 17.9296 8.3386 18.2623 8.90898L20.9248 13.475C21.0842 13.7483 21.1279 14.0739 21.046 14.3794C20.9641 14.6851 20.7635 14.9452 20.4889 15.1023C18.0496 16.4962 17.3021 19.1917 18.37 21.0229C18.7 21.5889 18.5088 22.315 17.9429 22.6449C17.377 22.9749 16.6509 22.7837 16.3208 22.2179C14.8775 19.7428 15.4607 16.7624 17.325 14.656C17.8462 14.0671 18.0246 13.2104 17.6285 12.5311L12.2191 3.25481Z" fill="white"/>
</svg>