<svg xmlns="http://www.w3.org/2000/svg" width="24" height="24" viewBox="0 0 24 24" fill="none">
  <path d="M17.0394 1.83579C16.6643 1.46071 16.1556 1.25 15.6251 1.25H8.37486C7.84442 1.25 7.33572 1.46071 6.96064 1.83579L1.83579 6.96064C1.46071 7.33571 1.25 7.84442 1.25 8.37486V15.6251C1.25 16.1556 1.46071 16.6643 1.83579 17.0394L6.96064 22.1642C7.33571 22.5393 7.84442 22.75 8.37486 22.75H15.6251C16.1556 22.75 16.6643 22.5393 17.0394 22.1642L22.1642 17.0394C22.5393 16.6643 22.75 16.1556 22.75 15.6251V8.37486C22.75 7.84442 22.5393 7.33572 22.1642 6.96064L17.0394 1.83579Z" stroke="white" stroke-width="2" stroke-miterlimit="10"/>
  <path d="M12 6.13354V13.9554" stroke="white" stroke-width="2" stroke-miterlimit="10"/>
  <path d="M12 15.9109V17.8664" stroke="white" stroke-width="2" stroke-miterlimit="10"/>
</svg>