<svg xmlns="http://www.w3.org/2000/svg" width="28" height="34" viewBox="0 0 28 34" fill="none">
  <path fill-rule="evenodd" clip-rule="evenodd" d="M2.00283 26.2653C2.56867 25.9354 3.29487 26.1266 3.62483 26.6924C4.9324 28.9348 6.93141 30.6304 9.39655 31.7307C9.9947 31.9976 10.2632 32.6989 9.99622 33.2972C9.72925 33.8952 9.02795 34.1638 8.4298 33.8968C5.56514 32.6183 3.16176 30.6071 1.57573 27.8873C1.24576 27.3215 1.43698 26.5953 2.00283 26.2653Z" fill="black"/>
  <path fill-rule="evenodd" clip-rule="evenodd" d="M24.9207 4.22532C23.3173 2.58785 21.0307 1.98386 18.7921 2.6208C18.1621 2.80007 17.5061 2.43466 17.3268 1.80464C17.1476 1.17463 17.5129 0.518565 18.1429 0.339301C21.2079 -0.532803 24.3968 0.299814 26.6154 2.56577C27.0737 3.03379 27.0658 3.7847 26.5979 4.24297C26.1298 4.70125 25.379 4.69334 24.9207 4.22532Z" fill="black"/>
  <path fill-rule="evenodd" clip-rule="evenodd" d="M12.7191 3.25499C12.3807 2.6745 11.3942 2.32248 10.3921 2.89517C9.39368 3.46577 9.21808 4.47158 9.55069 5.04195L13.5447 11.891C13.8746 12.4569 13.6834 13.1831 13.1176 13.513C12.5518 13.843 11.8256 13.6518 11.4956 13.0859L6.17027 3.95385C5.83176 3.37336 4.84529 3.02133 3.84323 3.59402C2.84481 4.16463 2.66922 5.17044 3.00184 5.74081L8.99282 16.0144C9.32279 16.5802 9.13157 17.3066 8.56572 17.6364C7.99988 17.9665 7.27368 17.7753 6.94372 17.2093L4.28106 12.6433C3.94255 12.0628 2.95608 11.7108 1.95402 12.2835C0.955604 12.8541 0.780009 13.8598 1.11263 14.4302L7.10361 24.7039C9.64793 29.067 15.9266 30.483 21.2509 27.4399C26.5717 24.3991 28.463 18.3243 25.9246 13.9713L21.9307 7.12219C21.5921 6.5417 20.6057 6.18968 19.6036 6.76237C18.6053 7.33297 18.4296 8.33878 18.7623 8.90917L21.4248 13.4752C21.5842 13.7485 21.6279 14.0741 21.546 14.3796C21.4641 14.6853 21.2635 14.9454 20.9889 15.1024C18.5496 16.4964 17.8021 19.1919 18.87 21.0231C19.2 21.5891 19.0088 22.3152 18.4429 22.6451C17.877 22.9751 17.1509 22.7839 16.8208 22.2181C15.3775 19.743 15.9607 16.7626 17.825 14.6562C18.3462 14.0673 18.5246 13.2106 18.1285 12.5313L12.7191 3.25499Z" fill="black"/>
</svg>