<svg xmlns="http://www.w3.org/2000/svg" width="28" height="28" viewBox="0 0 28 28" fill="none">
  <path d="M12.135 16.6961L16.7178 14.0055L12.135 11.3148V16.6961Z" fill="white"/>
  <path d="M14 0C6.26719 0 0 6.26719 0 14C0 21.7328 6.26719 28 14 28C21.7328 28 28 21.7328 28 14C28 6.26719 21.7328 0 14 0ZM21 16.5047C21 18.9164 18.5883 18.9164 18.5883 18.9164H9.41172C7 18.9164 7 16.5047 7 16.5047V11.5008C7 9.08906 9.41172 9.08906 9.41172 9.08906H18.5883C21 9.08906 21 11.5008 21 11.5008V16.5047Z" fill="white"/>
</svg>