<svg xmlns="http://www.w3.org/2000/svg" width="38" height="38" viewBox="0 0 38 38" fill="none">
  <path d="M23.748 34.1637C26.7361 34.0877 28.8341 33.8474 30.3975 33.0876V36.0985C30.3975 37.1478 29.547 37.9984 28.4977 37.9984H25.6479C24.5986 37.9984 23.748 37.1478 23.748 36.0985V34.1637Z" fill="#131D32"/>
  <path d="M7.59961 33.0874C9.16298 33.8473 11.261 34.0877 14.2491 34.1637V36.0985C14.2491 37.1478 13.3985 37.9983 12.3492 37.9983H9.49946C8.45021 37.9983 7.59961 37.1478 7.59961 36.0985V33.0874Z" fill="#131D32"/>
  <path opacity="0.5" fill-rule="evenodd" clip-rule="evenodd" d="M6.02561 2.22727C8.25144 0.00146507 11.8338 0.00146484 18.9986 0.00146484C26.1633 0.00146484 29.7459 0.00146507 31.9715 2.22727C33.9913 4.247 34.1784 7.38372 34.1957 13.3004L34.1974 20.8998C34.1801 26.8165 33.9913 29.9532 31.9715 31.9729C31.5114 32.4331 30.9935 32.798 30.3977 33.0876C28.8343 33.8475 26.7363 34.0876 23.7482 34.1636C22.3669 34.1986 20.7955 34.1988 18.9986 34.1988C17.2017 34.1988 15.6304 34.1988 14.249 34.1636C11.2609 34.0876 9.16287 33.8473 7.59951 33.0874C7.00381 32.7978 6.48572 32.4331 6.02561 31.9729C4.0059 29.9532 3.81711 26.8165 3.7998 20.8998L3.80157 13.3004C3.81888 7.38372 4.0059 4.247 6.02561 2.22727Z" fill="#131D32"/>
  <path d="M29.9222 26.5994C29.9222 25.8125 29.2842 25.1746 28.4973 25.1746H25.6475C24.8606 25.1746 24.2227 25.8125 24.2227 26.5994C24.2227 27.3864 24.8606 28.0243 25.6475 28.0243H28.4973C29.2842 28.0243 29.9222 27.3864 29.9222 26.5994Z" fill="#131D32"/>
  <path d="M8.07422 26.5994C8.07422 25.8125 8.71217 25.1746 9.49911 25.1746H12.3489C13.1358 25.1746 13.7738 25.8125 13.7738 26.5994C13.7738 27.3864 13.1358 28.0243 12.3489 28.0243H9.49911C8.71217 28.0243 8.07422 27.3864 8.07422 26.5994Z" fill="#131D32"/>
  <path d="M6.64941 14.2504C6.64941 16.9372 6.64941 18.2806 7.48409 19.1154C8.31878 19.95 9.66218 19.95 12.349 19.95H25.6479C28.3347 19.95 29.6781 19.95 30.5129 19.1154C31.3475 18.2806 31.3475 16.9372 31.3475 14.2504V9.50078C31.3475 6.81401 31.3475 5.47063 30.5129 4.63595C29.6781 3.80127 28.3347 3.80127 25.6479 3.80127H12.349C9.66218 3.80127 8.31878 3.80127 7.48409 4.63595C6.64941 5.47063 6.64941 6.81403 6.64941 9.50082V14.2504Z" fill="#131D32"/>
  <path d="M0.75994 18.6201L3.7997 20.8999L3.80147 13.3005H1.89985C0.850601 13.3005 0 14.1511 0 15.2004V17.1002C0 17.6983 0.281539 18.2612 0.75994 18.6201Z" fill="#131D32"/>
  <path d="M36.0971 13.3005H34.1953L34.1972 20.8999L37.237 18.6201C37.7154 18.2612 37.9969 17.6983 37.9969 17.1002V15.2004C37.9969 14.1511 37.1462 13.3005 36.0971 13.3005Z" fill="#131D32"/>
</svg>