<svg xmlns="http://www.w3.org/2000/svg" width="32" height="32" viewBox="0 0 32 32" fill="none">
  <path fill-rule="evenodd" clip-rule="evenodd" d="M14.8855 4.69749C14.8855 3.69848 14.4886 2.74028 13.7822 2.03325C13.0752 1.32684 12.117 0.929993 11.118 0.929993C9.24865 0.929993 6.7081 0.929993 4.83879 0.929993C3.83978 0.929993 2.88158 1.32684 2.17454 2.03325C1.46814 2.74028 1.07129 3.69848 1.07129 4.69749V10.9767C1.07129 11.9757 1.46814 12.9339 2.17454 13.6409C2.88158 14.3473 3.83978 14.7442 4.83879 14.7442H11.118C12.117 14.7442 13.0752 14.3473 13.7822 13.6409C14.4886 12.9339 14.8855 11.9757 14.8855 10.9767V4.69749Z" fill="#EFF3FF"/>
  <path fill-rule="evenodd" clip-rule="evenodd" d="M31.2107 4.69749C31.2107 3.69848 30.8138 2.74028 30.1074 2.03325C29.4004 1.32684 28.4422 0.929993 27.4432 0.929993C25.5738 0.929993 23.0333 0.929993 21.164 0.929993C20.165 0.929993 19.2068 1.32684 18.4997 2.03325C17.7933 2.74028 17.3965 3.69848 17.3965 4.69749V10.9767C17.3965 11.9757 17.7933 12.9339 18.4997 13.6409C19.2068 14.3473 20.165 14.7442 21.164 14.7442H27.4432C28.4422 14.7442 29.4004 14.3473 30.1074 13.6409C30.8138 12.9339 31.2107 11.9757 31.2107 10.9767V4.69749Z" fill="#EFF3FF"/>
  <path fill-rule="evenodd" clip-rule="evenodd" d="M14.2566 21.0234C14.2566 20.0243 13.8597 19.0661 13.1533 18.3591C12.4463 17.6527 11.4881 17.2559 10.4891 17.2559C8.61975 17.2559 6.07919 17.2559 4.20989 17.2559C3.21087 17.2559 2.25267 17.6527 1.54564 18.3591C0.839229 19.0661 0.442383 20.0243 0.442383 21.0234V27.3025C0.442383 28.3015 0.839229 29.2597 1.54564 29.9668C2.25267 30.6732 3.21087 31.07 4.20989 31.07H10.4891C11.4881 31.07 12.4463 30.6732 13.1533 29.9668C13.8597 29.2597 14.2566 28.3015 14.2566 27.3025V21.0234Z" fill="#EFF3FF"/>
  <path fill-rule="evenodd" clip-rule="evenodd" d="M24.3336 16.3798C20.3465 16.3798 17.1094 19.6169 17.1094 23.604C17.1094 27.5911 20.3465 30.8283 24.3336 30.8283C28.3207 30.8283 31.5579 27.5911 31.5579 23.604C31.5579 19.6169 28.3207 16.3798 24.3336 16.3798ZM24.3336 18.8928C26.9342 18.8928 29.0448 21.0034 29.0448 23.604C29.0448 26.2046 26.9342 28.3152 24.3336 28.3152C21.733 28.3152 19.6224 26.2046 19.6224 23.604C19.6224 21.0034 21.733 18.8928 24.3336 18.8928Z" fill="#EFF3FF"/>
</svg>