<svg xmlns="http://www.w3.org/2000/svg" width="34" height="34" viewBox="0 0 34 34" fill="none">
  <path d="M4.22201 25.0703C5.11373 25.07 5.96884 24.7156 6.59939 24.0851C7.22994 23.4545 7.58432 22.5994 7.58464 21.7077V20.3626C7.58464 19.4708 7.23036 18.6155 6.59974 17.9849C5.96913 17.3543 5.11383 17 4.22201 17C3.33018 17 2.47488 17.3543 1.84427 17.9849C1.21365 18.6155 0.859375 19.4708 0.859375 20.3626L0.859375 21.7077C0.859696 22.5994 1.21408 23.4545 1.84462 24.0851C2.47517 24.7156 3.33028 25.07 4.22201 25.0703Z" fill="#EFF3FF"/>
  <path d="M12.7367 25.0704C13.6284 25.0701 14.4835 24.7157 15.114 24.0852C15.7446 23.4546 16.099 22.5995 16.0993 21.7078V14.9825C16.0993 14.0907 15.745 13.2354 15.1144 12.6048C14.4838 11.9741 13.6285 11.6199 12.7367 11.6199C11.8448 11.6199 10.9895 11.9741 10.3589 12.6048C9.7283 13.2354 9.37402 14.0907 9.37402 14.9825V21.7078C9.37661 22.5988 9.73172 23.4526 10.3618 24.0826C10.9918 24.7127 11.8456 25.0678 12.7367 25.0704Z" fill="#EFF3FF"/>
  <path d="M21.264 25.0702C22.155 25.0676 23.0088 24.7125 23.6389 24.0825C24.2689 23.4524 24.624 22.5986 24.6266 21.7076V9.60213C24.6266 8.71031 24.2724 7.85501 23.6417 7.22439C23.0111 6.59378 22.1558 6.2395 21.264 6.2395C20.3722 6.2395 19.5169 6.59378 18.8863 7.22439C18.2556 7.85501 17.9014 8.71031 17.9014 9.60213V21.7076C17.9017 22.5993 18.2561 23.4544 18.8866 24.085C19.5172 24.7155 20.3723 25.0699 21.264 25.0702Z" fill="#EFF3FF"/>
  <path d="M29.7777 0.859375C28.8859 0.859696 28.0308 1.21408 27.4003 1.84462C26.7697 2.47517 26.4154 3.33028 26.415 4.22201V21.7077C26.415 22.5995 26.7693 23.4548 27.3999 24.0854C28.0305 24.716 28.8858 25.0703 29.7777 25.0703C30.6695 25.0703 31.5248 24.716 32.1554 24.0854C32.786 23.4548 33.1403 22.5995 33.1403 21.7077V4.22201C33.14 3.33028 32.7856 2.47517 32.1551 1.84462C31.5245 1.21408 30.6694 0.859696 29.7777 0.859375Z" fill="#EFF3FF"/>
  <path d="M31.7956 27.7603H20.7873C20.5132 26.9744 20.0014 26.2932 19.3228 25.8111C18.6441 25.3291 17.8324 25.0701 17 25.0701C16.1676 25.0701 15.3559 25.3291 14.6773 25.8111C13.9986 26.2932 13.4868 26.9744 13.2127 27.7603H2.20443C1.8477 27.7603 1.50558 27.9021 1.25333 28.1543C1.00109 28.4065 0.859375 28.7487 0.859375 29.1054C0.859375 29.4621 1.00109 29.8043 1.25333 30.0565C1.50558 30.3087 1.8477 30.4505 2.20443 30.4505H13.2127C13.4868 31.2364 13.9986 31.9176 14.6773 32.3997C15.3559 32.8817 16.1676 33.1407 17 33.1407C17.8324 33.1407 18.6441 32.8817 19.3228 32.3997C20.0014 31.9176 20.5132 31.2364 20.7873 30.4505H31.7956C32.1523 30.4505 32.4944 30.3087 32.7467 30.0565C32.9989 29.8043 33.1406 29.4621 33.1406 29.1054C33.1406 28.7487 32.9989 28.4065 32.7467 28.1543C32.4944 27.9021 32.1523 27.7603 31.7956 27.7603ZM17 30.4505C16.734 30.4505 16.4739 30.3716 16.2527 30.2238C16.0315 30.076 15.8591 29.8659 15.7573 29.6201C15.6555 29.3744 15.6289 29.1039 15.6808 28.843C15.7327 28.5821 15.8608 28.3424 16.0489 28.1543C16.237 27.9662 16.4767 27.8381 16.7376 27.7862C16.9985 27.7343 17.269 27.7609 17.5147 27.8627C17.7605 27.9645 17.9706 28.1369 18.1184 28.3581C18.2662 28.5793 18.3451 28.8394 18.3451 29.1054C18.3447 29.462 18.2029 29.804 17.9507 30.0561C17.6986 30.3083 17.3566 30.4501 17 30.4505Z" fill="#EFF3FF"/>
</svg>