<svg xmlns="http://www.w3.org/2000/svg" width="74" height="69" viewBox="0 0 74 69" fill="none">
  <path d="M55.2138 68.8384L39.8153 68.8384C44.3322 62.4736 47.9251 55.493 50.5942 47.8964C53.058 40.2998 54.1872 33.8324 53.9819 28.4942L56.4457 33.7297C51.7235 33.7297 47.7198 32.0872 44.4348 28.8022C41.1498 25.7225 39.5073 21.8215 39.5073 17.0993C39.5073 12.5824 41.1498 8.57876 44.4348 5.08844C47.5145 1.80341 51.3128 0.160894 55.8297 0.160895C60.9626 0.160895 65.2742 2.00872 68.7645 5.70437C72.2548 9.60533 74 14.4302 74 20.179C74 25.1065 73.1787 30.4447 71.5362 36.1935C69.6884 42.1476 67.3273 47.999 64.4529 53.7478C61.5785 59.4966 58.4988 64.5268 55.2138 68.8384Z" fill="#131D32"/>
  <path d="M15.707 68.8394L0.308418 68.8394C4.82532 62.4746 8.41831 55.494 11.0874 47.8973C13.5512 40.3007 14.6804 33.8333 14.4751 28.4952L16.9388 33.7307C12.2166 33.7307 8.213 32.0882 4.92798 28.8031C1.64296 25.7234 0.00045043 21.8225 0.000450843 17.1003C0.000451238 12.5834 1.64296 8.57974 4.92798 5.08941C8.00769 1.80439 11.806 0.161871 16.3229 0.161871C21.4557 0.161872 25.7673 2.0097 29.2577 5.70535C32.748 9.60631 34.4932 14.4312 34.4932 20.18C34.4932 25.1075 33.6719 30.4457 32.0294 36.1945C30.1816 42.1486 27.8205 48 24.9461 53.7488C22.0717 59.4976 18.992 64.5278 15.707 68.8394Z" fill="#131D32"/>
</svg>