<svg xmlns="http://www.w3.org/2000/svg" width="38" height="38" viewBox="0 0 38 38" fill="none">
  <g opacity="0.5">
    <path d="M22.5346 2.65117C25.9047 2.65117 28.2991 2.65398 30.1155 2.89819C31.8936 3.13728 32.9182 3.58561 33.6661 4.33361C34.4141 5.08161 34.8625 6.10611 35.1015 7.88432C35.3457 9.70066 35.3486 12.095 35.3486 15.4652C35.3486 16.1973 35.9421 16.7908 36.6742 16.7908C37.4062 16.7908 37.9997 16.1973 37.9997 15.4652V15.3655C37.9997 12.1173 37.9997 9.54456 37.7292 7.53106C37.4504 5.45887 36.8635 3.78165 35.5409 2.45895C34.2181 1.13626 32.5408 0.549253 30.4686 0.270668C28.4552 -5.23317e-05 25.8825 -3.4548e-05 22.6343 8.01012e-07H22.5346C21.8025 8.01012e-07 21.209 0.593492 21.209 1.32559C21.209 2.05768 21.8025 2.65117 22.5346 2.65117Z" fill="#131D32"/>
    <path d="M15.3655 8.01012e-07H15.4652C16.1973 8.01012e-07 16.7908 0.593492 16.7908 1.32559C16.7908 2.05768 16.1973 2.65117 15.4652 2.65117C12.095 2.65117 9.70066 2.65398 7.88432 2.89819C6.10611 3.13728 5.08161 3.58561 4.33361 4.33361C3.58561 5.08161 3.13728 6.10611 2.89819 7.88432C2.65398 9.70066 2.65117 12.095 2.65117 15.4652C2.65117 16.1973 2.05768 16.7908 1.32559 16.7908C0.593492 16.7908 8.01012e-07 16.1973 8.01012e-07 15.4652V15.3655C-3.4548e-05 12.1173 -5.23317e-05 9.54456 0.270668 7.53106C0.549253 5.45887 1.13626 3.78165 2.45895 2.45895C3.78165 1.13626 5.45887 0.549253 7.53106 0.270668C9.54456 -5.23317e-05 12.1173 -3.4548e-05 15.3655 8.01012e-07Z" fill="#131D32"/>
    <path d="M36.6742 21.2095C37.4062 21.2095 37.9997 21.803 37.9997 22.5351V22.6347C37.9997 25.883 37.9997 28.4557 37.7292 30.4691C37.4504 32.5413 36.8635 34.2186 35.5409 35.5414C34.2181 36.8639 32.5408 37.4509 30.4686 37.7296C28.4552 38.0002 25.8825 38.0002 22.6343 38.0002H22.5346C21.8025 38.0002 21.209 37.4067 21.209 36.6746C21.209 35.9426 21.8025 35.3491 22.5346 35.3491C25.9047 35.3491 28.2991 35.3462 30.1155 35.102C31.8936 34.863 32.9182 34.4146 33.6661 33.6666C34.4141 32.9186 34.8625 31.8941 35.1015 30.116C35.3457 28.2996 35.3486 25.9052 35.3486 22.5351C35.3486 21.803 35.9421 21.2095 36.6742 21.2095Z" fill="#131D32"/>
    <path d="M2.65117 22.5351C2.65117 21.803 2.05768 21.2095 1.32559 21.2095C0.593492 21.2095 8.01012e-07 21.803 8.01012e-07 22.5351V22.6347C-3.4548e-05 25.883 -5.23317e-05 28.4557 0.270668 30.4691C0.549253 32.5413 1.13626 34.2186 2.45895 35.5414C3.78165 36.8639 5.45887 37.4509 7.53106 37.7296C9.54456 38.0002 12.1173 38.0002 15.3655 38.0002H15.4652C16.1973 38.0002 16.7908 37.4067 16.7908 36.6746C16.7908 35.9426 16.1973 35.3491 15.4652 35.3491C12.095 35.3491 9.70066 35.3462 7.88432 35.102C6.10611 34.863 5.08161 34.4146 4.33361 33.6666C3.58561 32.9186 3.13728 31.8941 2.89819 30.116C2.65398 28.2996 2.65117 25.9052 2.65117 22.5351Z" fill="#131D32"/>
  </g>
  <path d="M7.55975 7.5595C6.62793 8.49132 6.62793 9.99104 6.62793 12.9905C6.62793 14.9901 6.62793 15.99 7.24913 16.6111C7.87034 17.2324 8.87017 17.2324 10.8698 17.2324H12.9907C14.9904 17.2324 15.9903 17.2324 16.6114 16.6111C17.2326 15.99 17.2326 14.9901 17.2326 12.9905V10.8696C17.2326 8.86992 17.2326 7.8701 16.6114 7.24889C15.9903 6.62769 14.9904 6.62769 12.9907 6.62769C9.99128 6.62769 8.49156 6.62769 7.55975 7.5595Z" fill="#131D32"/>
  <path d="M7.55975 30.4405C6.62793 29.5087 6.62793 28.009 6.62793 25.0095C6.62793 23.0098 6.62793 22.0099 7.24913 21.3888C7.87034 20.7676 8.87017 20.7676 10.8698 20.7676H12.9907C14.9904 20.7676 15.9903 20.7676 16.6114 21.3888C17.2326 22.0099 17.2326 23.0098 17.2326 25.0095V27.1304C17.2326 29.1301 17.2326 30.1299 16.6114 30.751C15.9903 31.3723 14.9904 31.3723 12.9908 31.3723C9.99135 31.3723 8.49155 31.3723 7.55975 30.4405Z" fill="#131D32"/>
  <path d="M20.7676 10.8696C20.7676 8.86992 20.7676 7.8701 21.3888 7.24889C22.0099 6.62769 23.0098 6.62769 25.0095 6.62769C28.009 6.62769 29.5087 6.62769 30.4405 7.5595C31.3723 8.49132 31.3723 9.99104 31.3723 12.9905C31.3723 14.9901 31.3723 15.99 30.751 16.6111C30.1299 17.2324 29.1301 17.2324 27.1304 17.2324H25.0095C23.0098 17.2324 22.0099 17.2324 21.3888 16.6111C20.7676 15.99 20.7676 14.9901 20.7676 12.9905V10.8696Z" fill="#131D32"/>
  <path d="M21.3888 30.751C20.7676 30.1299 20.7676 29.1301 20.7676 27.1304V25.0095C20.7676 23.0098 20.7676 22.0099 21.3888 21.3888C22.0099 20.7676 23.0098 20.7676 25.0095 20.7676H27.1304C29.1301 20.7676 30.1299 20.7676 30.751 21.3888C31.3723 22.0099 31.3723 23.0098 31.3723 25.0095C31.3723 28.0088 31.3723 29.5087 30.4405 30.4405C29.5087 31.3723 28.009 31.3723 25.0095 31.3723C23.0099 31.3723 22.0099 31.3723 21.3888 30.751Z" fill="#131D32"/>
</svg>