<svg xmlns="http://www.w3.org/2000/svg" width="26" height="38" viewBox="0 0 26 38" fill="none">
  <path d="M21.0338 5.74413V4.27126C21.0338 1.995 19.2932 0.254333 17.0169 0.254333H3.62717C2.82378 0.254333 2.28819 0.789923 2.28819 1.59331C2.28819 2.39669 2.82378 2.93228 3.62717 2.93228C4.43055 2.93228 4.96614 3.46787 4.96614 4.27126V5.74413C2.68989 6.27972 0.949219 8.42208 0.949219 10.9661V32.3897C0.949219 35.3355 3.35937 37.7456 6.30512 37.7456H19.6949C22.6406 37.7456 25.0508 35.3355 25.0508 32.3897V10.9661C25.0508 8.42208 23.3101 6.41361 21.0338 5.74413ZM17.0169 32.3897H8.98306C8.17968 32.3897 7.64409 31.8541 7.64409 31.0507C7.64409 30.2474 8.17968 29.7118 8.98306 29.7118H17.0169C17.8203 29.7118 18.3559 30.2474 18.3559 31.0507C18.3559 31.8541 17.8203 32.3897 17.0169 32.3897ZM18.3559 19H7.64409V4.27126C7.64409 3.73567 7.51019 3.33397 7.3763 2.93228H17.0169C17.8203 2.93228 18.3559 3.46787 18.3559 4.27126V19Z" fill="#EFF3FF"/>
  <path d="M12.3299 12.3051H13.6688C14.0705 12.3051 14.3383 12.5729 14.3383 12.9746C14.3383 13.3763 14.0705 13.6441 13.6688 13.6441H11.6604C10.857 13.6441 10.3214 14.1797 10.3214 14.9831C10.3214 15.7865 10.857 16.3221 11.6604 16.3221C11.6604 17.1255 12.196 17.661 12.9993 17.661C13.8027 17.661 14.3383 17.1255 14.3383 16.3221V16.1882C15.8112 15.9204 17.0163 14.5814 17.0163 12.9746C17.0163 11.1001 15.5434 9.6272 13.6688 9.6272H12.3299C11.9282 9.6272 11.6604 9.3594 11.6604 8.95771C11.6604 8.55602 11.9282 8.28822 12.3299 8.28822H14.3383C15.1417 8.28822 15.6773 7.75264 15.6773 6.94925C15.6773 6.14587 15.1417 5.61028 14.3383 5.61028C14.3383 4.80689 13.8027 4.2713 12.9993 4.2713C12.196 4.2713 11.6604 4.80689 11.6604 5.61028V5.74417C10.1875 6.01197 8.98242 7.35094 8.98242 8.95771C8.98242 10.8323 10.4553 12.3051 12.3299 12.3051Z" fill="#EFF3FF"/>
</svg>