<svg xmlns="http://www.w3.org/2000/svg" width="40" height="38" viewBox="0 0 40 38" fill="none">
  <path fill-rule="evenodd" clip-rule="evenodd" d="M18.0625 0H21.7251C25.1783 0 26.9048 -1.09155e-07 27.9776 1.07277C29.0504 2.14553 29.0504 3.87212 29.0504 7.3253V35.253H37.2914H38.207C38.9656 35.253 39.5805 35.868 39.5805 36.6265C39.5805 37.385 38.9656 38 38.207 38H1.58053C0.821972 38 0.207031 37.385 0.207031 36.6265C0.207031 35.868 0.821972 35.253 1.58053 35.253H7.99016H10.7372V7.3253C10.7372 3.87212 10.7372 2.14553 11.8099 1.07277C12.8827 -1.09155e-07 14.6093 0 18.0625 0ZM14.8576 18.3133C14.8576 17.5547 15.4726 16.9398 16.2311 16.9398H23.5564C24.315 16.9398 24.9299 17.5547 24.9299 18.3133C24.9299 19.0718 24.315 19.6867 23.5564 19.6867H16.2311C15.4726 19.6867 14.8576 19.0718 14.8576 18.3133ZM14.8576 23.8072C14.8576 23.0487 15.4726 22.4337 16.2311 22.4337H23.5564C24.315 22.4337 24.9299 23.0487 24.9299 23.8072C24.9299 24.5658 24.315 25.1807 23.5564 25.1807H16.2311C15.4726 25.1807 14.8576 24.5658 14.8576 23.8072ZM19.8938 29.759C20.6523 29.759 21.2673 30.374 21.2673 31.1325V35.253H18.5203V31.1325C18.5203 30.374 19.1352 29.759 19.8938 29.759ZM15.3155 9.15663C15.3155 6.37525 17.5702 4.12048 20.3516 4.12048C23.133 4.12048 25.3878 6.37525 25.3878 9.15663C25.3878 11.938 23.133 14.1928 20.3516 14.1928C17.5702 14.1928 15.3155 11.938 15.3155 9.15663Z" fill="#131D32"/>
  <path opacity="0.5" d="M18.0625 9.15659C18.0625 7.89231 19.0873 6.86743 20.3517 6.86743C21.616 6.86743 22.6408 7.89231 22.6408 9.15659C22.6408 10.4209 21.616 11.4457 20.3517 11.4457C19.0873 11.4457 18.0625 10.4209 18.0625 9.15659Z" fill="#131D32"/>
  <path opacity="0.5" d="M36.674 7.1217C37.2914 8.0455 37.2914 9.33153 37.2914 11.9035V35.2529H38.207C38.9656 35.2529 39.5805 35.8678 39.5805 36.6264C39.5805 37.3851 38.9656 37.9998 38.207 37.9998H1.58053C0.821972 37.9998 0.207031 37.3851 0.207031 36.6264C0.207031 35.8678 0.821972 35.2529 1.58053 35.2529H2.49619V11.9035C2.49619 9.33153 2.49619 8.0455 3.11345 7.1217C3.38068 6.72178 3.72405 6.3784 4.12398 6.11118C4.932 5.57126 8.76959 5.5036 10.75 5.49512C10.7425 6.02875 10.7425 6.58637 10.7426 7.16133L10.7426 7.32523V9.61439H6.15884C5.40029 9.61439 4.78534 10.2293 4.78534 10.9879C4.78534 11.7464 5.40029 12.3614 6.15884 12.3614H10.7426V15.1083H6.15884C5.40029 15.1083 4.78534 15.7232 4.78534 16.4818C4.78534 17.2405 5.40029 17.8553 6.15884 17.8553H10.7426V20.6023H6.15884C5.40029 20.6023 4.78534 21.2172 4.78534 21.9757C4.78534 22.7345 5.40029 23.3492 6.15884 23.3492H10.7426V35.2529H29.0557V23.3492H33.6287C34.3873 23.3492 35.0022 22.7345 35.0022 21.9757C35.0022 21.2172 34.3873 20.6023 33.6287 20.6023H29.0557V17.8553H33.6287C34.3873 17.8553 35.0022 17.2405 35.0022 16.4818C35.0022 15.7232 34.3873 15.1083 33.6287 15.1083H29.0557V12.3614H33.6287C34.3873 12.3614 35.0022 11.7464 35.0022 10.9879C35.0022 10.2293 34.3873 9.61439 33.6287 9.61439H29.0557V7.32523V7.16135C29.0559 6.5864 29.0559 6.02875 29.0484 5.49512C31.0288 5.5036 34.8555 5.57126 35.6635 6.11118C36.0635 6.3784 36.4068 6.72178 36.674 7.1217Z" fill="#131D32"/>
</svg>