<svg xmlns="http://www.w3.org/2000/svg" width="40" height="40" viewBox="0 0 40 40" fill="none">
  <path d="M20.0016 23.1021C22.1918 23.1021 24.3328 22.4526 26.1539 21.2358C27.975 20.019 29.3944 18.2895 30.2325 16.266C31.0707 14.2425 31.29 12.0159 30.8627 9.86781C30.4354 7.71969 29.3807 5.74652 27.832 4.19781C26.2833 2.6491 24.3101 1.59442 22.162 1.16713C20.0139 0.739844 17.7873 0.959144 15.7638 1.7973C13.7403 2.63545 12.0108 4.05482 10.794 5.8759C9.5772 7.69699 8.92773 9.83801 8.92773 12.0282C8.93162 14.964 10.0996 17.7784 12.1755 19.8543C14.2514 21.9302 17.0658 23.0982 20.0016 23.1021ZM19.3095 4.21422C19.3095 4.03066 19.3824 3.85462 19.5122 3.72482C19.642 3.59502 19.818 3.5221 20.0016 3.5221C20.1852 3.5221 20.3612 3.59502 20.491 3.72482C20.6208 3.85462 20.6937 4.03066 20.6937 4.21422V11.3361H25.1648C25.3483 11.3361 25.5244 11.409 25.6542 11.5388C25.784 11.6686 25.8569 11.8446 25.8569 12.0282C25.8569 12.2118 25.784 12.3878 25.6542 12.5176C25.5244 12.6474 25.3483 12.7203 25.1648 12.7203H20.0016C19.8181 12.719 19.6421 12.6471 19.5102 12.5196C19.3811 12.3887 19.3089 12.2121 19.3095 12.0282V4.21422Z" fill="#EFF3FF"/>
  <path d="M38.6875 33.5338H22.0767C21.5904 33.5343 21.1129 33.6632 20.6925 33.9075C20.6934 34.3609 20.6896 34.1738 20.6994 34.5996C20.6994 34.785 20.6257 34.9628 20.4946 35.0939C20.3635 35.225 20.1857 35.2986 20.0003 35.2986C19.815 35.2986 19.6371 35.225 19.5061 35.0939C19.375 34.9628 19.3013 34.785 19.3013 34.5996C19.3103 34.1648 19.3076 34.3652 19.3082 33.9075C18.8878 33.6632 18.4103 33.5343 17.924 33.5338H1.31321C1.12982 33.5343 0.954093 33.6074 0.824415 33.7371C0.694737 33.8668 0.621641 34.0425 0.621094 34.2259V34.918C0.622706 35.4682 0.841981 35.9954 1.23102 36.3844C1.62007 36.7734 2.14726 36.9927 2.69744 36.9943H16.4083C16.529 36.995 16.6475 37.0273 16.752 37.088C16.8564 37.1487 16.9431 37.2357 17.0035 37.3403C17.3123 37.86 17.7509 38.2905 18.2763 38.5894C18.8017 38.8884 19.3958 39.0456 20.0003 39.0456C20.6048 39.0456 21.199 38.8884 21.7244 38.5895C22.2498 38.2905 22.6884 37.8601 22.9972 37.3404C23.0576 37.2358 23.1443 37.1488 23.2487 37.0881C23.3531 37.0273 23.4716 36.995 23.5924 36.9943H37.3033C37.8534 36.9927 38.3806 36.7734 38.7697 36.3844C39.1587 35.9954 39.378 35.4682 39.3796 34.918V34.2259C39.3791 34.0425 39.306 33.8668 39.1763 33.7371C39.0466 33.6074 38.8709 33.5343 38.6875 33.5338Z" fill="#EFF3FF"/>
  <path d="M19.3078 32.5231V26.8685C18.0037 25.5988 16.4574 25.6769 14.1723 26.6747C10.7821 28.2878 7.10478 29.2101 3.35456 29.3879C2.99247 29.3938 2.64741 29.5427 2.39459 29.802C2.14178 30.0613 2.00172 30.41 2.00494 30.7721V32.1494H17.9236C18.4099 32.15 18.8874 32.2789 19.3078 32.5231Z" fill="#EFF3FF"/>
  <path d="M20.6934 26.8685V32.5231C21.1138 32.2788 21.5913 32.1498 22.0776 32.1493H37.9963V30.772C37.996 30.4109 37.8547 30.0642 37.6027 29.8057C37.3506 29.5472 37.0076 29.3972 36.6466 29.3878C32.8964 29.21 29.2191 28.2877 25.8289 26.6747C23.5429 25.6765 21.9988 25.5992 20.6934 26.8685Z" fill="#EFF3FF"/>
</svg>