<svg xmlns="http://www.w3.org/2000/svg" width="30" height="34" viewBox="0 0 30 34" fill="none">
  <path d="M29.0702 16.6416C29.0754 17.3777 28.8893 18.1026 28.5301 18.7451C28.1709 19.3877 27.6509 19.9259 27.021 20.3069L24.539 21.8221C23.5051 20.4151 22.0527 19.371 20.3897 18.8391C18.7266 18.3072 16.9379 18.3148 15.2794 18.8607C13.6209 19.4066 12.1774 20.4629 11.1554 21.8786C10.1334 23.2943 9.58514 24.9969 9.58904 26.7429C9.58931 28.0216 9.89088 29.2823 10.4693 30.4227L7.46776 32.2553C6.79371 32.6662 6.02045 32.8858 5.23104 32.8903C4.49188 32.8882 3.76592 32.6943 3.12419 32.3275C2.4557 31.96 1.89896 31.4187 1.51285 30.7608C1.12674 30.1029 0.92562 29.3528 0.93076 28.59V17.7239H7.78523C8.07227 17.7239 8.34755 17.6098 8.55052 17.4069C8.75349 17.2039 8.86751 16.9286 8.86751 16.6416C8.86751 16.3545 8.75349 16.0793 8.55052 15.8763C8.34755 15.6733 8.07227 15.5593 7.78523 15.5593H0.93076V4.69317C0.93299 3.93077 1.13773 3.18264 1.52404 2.52536C1.91035 1.86807 2.46435 1.32522 3.12935 0.952346C3.79435 0.579476 4.54647 0.389976 5.30876 0.403239C6.07105 0.416502 6.81613 0.632051 7.46776 1.02783L27.021 12.9762C27.6509 13.3573 28.1709 13.8955 28.5301 14.538C28.8893 15.1806 29.0754 15.9055 29.0702 16.6416Z" fill="#EFF3FF"/>
  <path d="M17.8867 19.8885C16.531 19.8885 15.2058 20.2905 14.0786 21.0437C12.9513 21.7969 12.0728 22.8674 11.554 24.1199C11.0352 25.3724 10.8995 26.7506 11.1639 28.0802C11.4284 29.4098 12.0812 30.6312 13.0399 31.5898C13.9985 32.5484 15.2198 33.2012 16.5495 33.4657C17.8791 33.7302 19.2573 33.5945 20.5098 33.0757C21.7623 32.5569 22.8328 31.6783 23.586 30.5511C24.3392 29.4239 24.7412 28.0986 24.7412 26.743C24.7389 24.9257 24.016 23.1836 22.731 21.8986C21.446 20.6137 19.7039 19.8908 17.8867 19.8885ZM20.0946 28.9508C19.9943 29.0515 19.8751 29.1314 19.7438 29.1859C19.6126 29.2405 19.4719 29.2685 19.3297 29.2685C19.1876 29.2685 19.0469 29.2405 18.9157 29.1859C18.7844 29.1314 18.6652 29.0515 18.5649 28.9508L17.1219 27.5078C17.0212 27.4075 16.9413 27.2883 16.8868 27.1571C16.8323 27.0258 16.8043 26.8851 16.8044 26.743V24.5784C16.8044 24.2913 16.9184 24.0161 17.1214 23.8131C17.3244 23.6101 17.5997 23.4961 17.8867 23.4961C18.1737 23.4961 18.449 23.6101 18.652 23.8131C18.855 24.0161 18.969 24.2913 18.969 24.5784V26.2942L20.0946 27.4212C20.1951 27.5216 20.2748 27.6408 20.3293 27.772C20.3837 27.9033 20.4117 28.0439 20.4117 28.186C20.4117 28.3281 20.3837 28.4687 20.3293 28.6C20.2748 28.7312 20.1951 28.8504 20.0946 28.9508Z" fill="#EFF3FF"/>
</svg>