<svg xmlns="http://www.w3.org/2000/svg" width="38" height="38" viewBox="0 0 38 38" fill="none">
  <path d="M19.3868 3.54534H17.6868C17.1768 1.76806 15.5386 0.454407 13.5913 0.454407C11.644 0.454407 10.0058 1.76806 9.49584 3.54534H7.79582C7.16218 3.54534 6.63672 4.0708 6.63672 4.70445V7.02265C6.63672 8.5063 7.85764 9.72722 9.34129 9.72722H17.8414C19.325 9.72722 20.5459 8.5063 20.5459 7.02265V4.70445C20.5459 4.0708 20.0205 3.54534 19.3868 3.54534Z" fill="#EFF3FF"/>
  <path d="M22.478 5.09082H22.0916V7.02266C22.0916 9.37177 20.1907 11.2727 17.8416 11.2727H9.34152C6.99241 11.2727 5.09148 9.37177 5.09148 7.02266V5.09082H4.70512C2.356 5.09082 0.455078 6.99175 0.455078 9.34086V28.6592C0.455078 31.0083 2.356 32.9093 4.70512 32.9093H16.1107L16.4507 31.0083C16.6052 30.1429 17.007 29.3701 17.6252 28.7365L18.8616 27.5001H6.25059C5.61694 27.5001 5.09148 26.9747 5.09148 26.341C5.09148 25.7074 5.61694 25.1819 6.25059 25.1819H20.9325C21.0098 25.1819 21.0716 25.1819 21.1489 25.2128H21.1644L26.728 19.6491V9.34086C26.728 6.99175 24.8271 5.09082 22.478 5.09082ZM20.9325 22.4773H6.25059C5.61694 22.4773 5.09148 21.9519 5.09148 21.3182C5.09148 20.6846 5.61694 20.1591 6.25059 20.1591H20.9325C21.5662 20.1591 22.0916 20.6846 22.0916 21.3182C22.0916 21.9519 21.5662 22.4773 20.9325 22.4773ZM20.9325 17.4546H6.25059C5.61694 17.4546 5.09148 16.9291 5.09148 16.2955C5.09148 15.6618 5.61694 15.1364 6.25059 15.1364H20.9325C21.5662 15.1364 22.0916 15.6618 22.0916 16.2955C22.0916 16.9291 21.5662 17.4546 20.9325 17.4546Z" fill="#EFF3FF"/>
  <path d="M19.8157 37.5457C19.5113 37.5457 19.2145 37.4251 18.9966 37.2057C18.7293 36.9383 18.6087 36.5581 18.6752 36.1841L19.4943 31.54C19.5345 31.3066 19.6488 31.0902 19.8157 30.9218L31.2908 19.4482C32.7003 18.0357 34.085 18.4174 34.8423 19.1747L36.7541 21.0864C37.8096 22.1404 37.8096 23.8559 36.7541 24.9115L25.279 36.3866C25.112 36.555 24.8957 36.6678 24.6608 36.708L20.0166 37.5271C19.9502 37.5395 19.8822 37.5457 19.8157 37.5457Z" fill="#EFF3FF"/>
</svg>