<svg xmlns="http://www.w3.org/2000/svg" width="39" height="38" viewBox="0 0 39 38" fill="none">
  <path opacity="0.5" d="M19.1033 38.0001C29.2174 38.0001 37.4166 29.8009 37.4166 19.6868C37.4166 9.57266 29.2174 1.37354 19.1033 1.37354C8.98917 1.37354 0.790039 9.57266 0.790039 19.6868C0.790039 29.8009 8.98917 38.0001 19.1033 38.0001Z" fill="#131D32"/>
  <path fill-rule="evenodd" clip-rule="evenodd" d="M19.9628 18.8266C19.4264 18.2902 19.4264 17.4207 19.9628 16.8843L34.1 2.74699H27.6297C26.8712 2.74699 26.2562 2.13205 26.2562 1.3735C26.2562 0.614942 26.8712 0 27.6297 0H37.4159C38.1745 0 38.7894 0.614942 38.7894 1.3735V11.1597C38.7894 11.9182 38.1745 12.5331 37.4159 12.5331C36.6574 12.5331 36.0424 11.9182 36.0424 11.1597V4.68941L21.9052 18.8266C21.3688 19.363 20.4992 19.363 19.9628 18.8266Z" fill="#131D32"/>
</svg>