<svg xmlns="http://www.w3.org/2000/svg" width="13" height="14" viewBox="0 0 13 14" fill="none">
  <path d="M6.17647 14C5.52632 14 6.29545 12.9718 3.09019 11.3726C2.91458 11.2848 2.74418 11.1869 2.57981 11.0795C0.984984 10.0403 0 8.13953 0 6.09358C0 2.72837 2.76511 0 6.17647 0C9.58783 0 12.3529 2.72837 12.3529 6.09293C12.3529 8.34726 11.1541 10.4277 9.26796 11.37C6.05944 12.9712 6.82663 14 6.17647 14ZM6.17647 8.53674C7.54895 8.53674 8.64706 7.448 8.64706 6.12419C8.64706 4.80037 7.54895 3.71163 6.17647 3.71163C4.80399 3.71163 3.70588 4.80037 3.70588 6.12419C3.70588 7.448 4.80399 8.53674 6.17647 8.53674Z" fill="#333"/>
</svg>