<svg xmlns="http://www.w3.org/2000/svg" width="15" height="12" viewBox="0 0 15 12" fill="none">
  <path fill-rule="evenodd" clip-rule="evenodd" d="M3.09852 0.5H11.446C11.7495 0.499993 12.0114 0.499986 12.2282 0.514678C12.4564 0.530154 12.6847 0.564185 12.9102 0.656998C13.4188 0.866328 13.823 1.26785 14.0336 1.77322C14.127 1.99729 14.1612 2.22411 14.1769 2.45086C14.1916 2.66623 14.1916 2.92644 14.1916 3.22801V8.772C14.1916 9.07354 14.1916 9.33376 14.1769 9.54915C14.1612 9.77589 14.127 10.0027 14.0336 10.2268C13.823 10.7321 13.4188 11.1337 12.9102 11.343C12.6847 11.4358 12.4564 11.4698 12.2282 11.4854C12.0114 11.5 11.7495 11.5 11.446 11.5H3.09851C2.795 11.5 2.53311 11.5 2.31636 11.4854C2.08813 11.4698 1.85986 11.4358 1.63434 11.343C1.12571 11.1337 0.721597 10.7321 0.510916 10.2268C0.417505 10.0027 0.383254 9.77589 0.367678 9.54915C0.352892 9.33376 0.352899 9.07354 0.352906 8.772V3.22801C0.352899 2.92644 0.352892 2.66623 0.367678 2.45086C0.383254 2.22411 0.417505 1.99729 0.510916 1.77322C0.721597 1.26785 1.12571 0.866328 1.63434 0.656998C1.85986 0.564185 2.08813 0.530154 2.31636 0.514678C2.53311 0.499986 2.795 0.499993 3.09852 0.5ZM1.95643 2.06597C2.20808 1.78022 2.64522 1.75126 2.93282 2.00129L6.81662 5.37781C7.07748 5.60462 7.46704 5.60462 7.7279 5.37781L11.6117 2.00129C11.8993 1.75126 12.3365 1.78022 12.5881 2.06597C12.8397 2.35172 12.8106 2.78605 12.523 3.03608L8.63918 6.41264C7.85653 7.09306 6.68799 7.09306 5.90534 6.41264L2.02153 3.03608C1.73393 2.78605 1.70479 2.35172 1.95643 2.06597Z" fill="#333"/>
</svg>