<svg xmlns="http://www.w3.org/2000/svg" width="15" height="14" viewBox="0 0 15 14" fill="none">
  <path d="M4.8811 2.98713L5.36785 3.85933C5.80713 4.64644 5.6308 5.679 4.93893 6.37086C4.93893 6.37086 4.09981 7.21011 5.62128 8.73164C7.14228 10.2526 7.98205 9.41399 7.98205 9.41399C8.67393 8.72212 9.70645 8.54579 10.4936 8.98507L11.3658 9.47182C12.5543 10.1351 12.6947 11.8019 11.65 12.8467C11.0223 13.4744 10.2532 13.9629 9.40308 13.9951C7.972 14.0494 5.54163 13.6872 3.10368 11.2492C0.665754 8.81129 0.303564 6.38093 0.357819 4.94982C0.390047 4.0997 0.878507 3.33068 1.50626 2.70292C2.55098 1.65821 4.21778 1.79858 4.8811 2.98713Z" fill="#333"/>
  <path d="M7.11015 0.480669C7.16068 0.168617 7.45573 -0.0430637 7.76789 0.00745053C7.7872 0.0111519 7.84942 0.0227673 7.88194 0.0300175C7.94713 0.0445253 8.03797 0.066848 8.15126 0.0998399C8.37783 0.165808 8.69434 0.274491 9.0742 0.448593C9.83477 0.797179 10.8469 1.40695 11.8971 2.45692C12.9474 3.50689 13.5574 4.51871 13.906 5.27904C14.0802 5.65881 14.1889 5.97522 14.2549 6.20171C14.2879 6.31497 14.3102 6.40581 14.3247 6.47093C14.332 6.50349 14.3373 6.52964 14.341 6.54895L14.3454 6.57276C14.3959 6.88479 14.1861 7.19204 13.8739 7.24256C13.5627 7.29293 13.2695 7.08222 13.2177 6.77168C13.2161 6.76329 13.2117 6.74093 13.207 6.71979C13.1976 6.67751 13.1813 6.61049 13.1555 6.52184C13.1038 6.34453 13.0141 6.08099 12.8651 5.75612C12.5676 5.10719 12.0324 4.21109 11.0874 3.26638C10.1425 2.32169 9.24612 1.78671 8.597 1.48921C8.27203 1.34027 8.00843 1.25057 7.83102 1.19892C7.74239 1.1731 7.63093 1.14753 7.58864 1.13812C7.27794 1.08635 7.05976 0.791829 7.11015 0.480669Z" fill="#333"/>
  <path fill-rule="evenodd" clip-rule="evenodd" d="M7.37439 3.15269C7.45861 2.85795 7.76579 2.68729 8.06054 2.7715L7.9081 3.30517C8.06054 2.7715 8.06054 2.7715 8.06054 2.7715L8.06165 2.77181L8.06276 2.77213L8.0652 2.77285L8.07097 2.77457L8.08563 2.77913C8.09673 2.78269 8.11071 2.78734 8.12729 2.79324C8.16052 2.80504 8.20447 2.8218 8.25835 2.84489C8.36617 2.8911 8.51343 2.96245 8.69444 3.06954C9.05661 3.28392 9.55109 3.64 10.132 4.22091C10.7129 4.80182 11.0689 5.29629 11.2833 5.65851C11.3904 5.83946 11.4617 5.98677 11.508 6.09458C11.5311 6.14846 11.5479 6.19239 11.5597 6.22562C11.5656 6.24224 11.5702 6.25617 11.5738 6.26733L11.5783 6.28198L11.58 6.28771L11.5807 6.29017L11.581 6.29131C11.581 6.29131 11.5814 6.29238 11.0477 6.44486L11.5814 6.29238C11.6656 6.58711 11.4949 6.89429 11.2002 6.97851C10.908 7.06198 10.6035 6.89496 10.5162 6.60481L10.5135 6.59684C10.5096 6.58571 10.5014 6.56382 10.4877 6.53185C10.4604 6.46796 10.4107 6.36344 10.3281 6.22388C10.1631 5.94508 9.86508 5.52382 9.34707 5.00583C8.82912 4.48784 8.40783 4.18983 8.12907 4.02483C7.9895 3.94223 7.88501 3.89257 7.82107 3.86519C7.7891 3.85149 7.7672 3.84332 7.7561 3.83938L7.7481 3.83665C7.45801 3.74941 7.29092 3.44493 7.37439 3.15269Z" fill="#333"/>
</svg>